ply
format ascii 1.0
comment VCGLIB generated
element vertex 8
property float x
property float y
property float z
property float nx
property float ny
property float nz
element face 12
property list uchar int vertex_indices
end_header
0.091 0.028 0.022 3.26418 0.309035 0.190782 
-0.091 0.028 0.022 -1.88458 0.356843 0.220296 
0.091 -0.028 0.022 3.76915 -0.178421 0.220296 
-0.091 -0.028 0.022 -3.76915 -0.356843 0.110148 
0.091 0.028 -0.022 3.76915 0.356843 -0.110148 
-0.091 0.028 -0.022 -3.76915 0.178421 -0.220296 
0.091 -0.028 -0.022 1.88458 -0.356843 -0.220296 
-0.091 -0.028 -0.022 -3.26418 -0.309035 -0.190782 
3 0 1 2 
3 3 2 1 
3 0 2 4 
3 6 4 2 
3 0 4 1 
3 5 1 4 
3 7 5 6 
3 4 6 5 
3 7 6 3 
3 2 3 6 
3 7 3 5 
3 1 5 3 
