ply
format ascii 1.0
comment VCGLIB generated
element vertex 8
property float x
property float y
property float z
property float nx
property float ny
property float nz
element face 12
property list uchar int vertex_indices
end_header
0.064 0.108 0.024 0.78329 2.23054 0.11015 
-0.064 0.108 0.024 -0.452233 2.57561 0.12719 
0.064 -0.108 0.024 0.904466 -1.2878 0.12719 
-0.064 -0.108 0.024 -0.904466 -2.57561 0.0635952 
0.064 0.108 -0.024 0.904466 2.57561 -0.0635952 
-0.064 0.108 -0.024 -0.904466 1.2878 -0.12719 
0.064 -0.108 -0.024 0.452233 -2.57561 -0.12719 
-0.064 -0.108 -0.024 -0.78329 -2.23054 -0.11015 
3 0 1 2 
3 3 2 1 
3 0 2 4 
3 6 4 2 
3 0 4 1 
3 5 1 4 
3 7 5 6 
3 4 6 5 
3 7 6 3 
3 2 3 6 
3 7 3 5 
3 1 5 3 
